# xmcd
#
# Track frame offsets: 
#        183
#        10993
#        22333
#        35108
#        47358
#        64683
#        74850
#        85123
#        103993
#        116673
#        128173
#        141768
#        154023
#        167888
#        179358
#        193833
#        204633
#        216708
#        230133
#        247983
#        261108
#        272208
#        289458
#        303488
#        319683
#
# Disc length: 4420 seconds
#
# Revision: 3
# Processed by: cddbd v1.5.2PL0 Copyright (c) Steve Scherf et al.
# Submitted via: ExactAudioCopy v0.95b4
#
DISCID=92114219
DTITLE=John Lee Hooker - John Lee Hooker - The Story
DYEAR=1989
DGENRE=Blues
TTITLE0=Maudie
TTITLE1=Shake, Holler and Run
TTITLE2=Hobo Blues
TTITLE3=Crawling King Snake
TTITLE4=Blues Before Sunrise
TTITLE5=Dimples
TTITLE6=Want Ad Blues
TTITLE7=Jesse James Blues
TTITLE8=I'm In the Mood
TTITLE9=Boom Boom
TTITLE10=Time is Marching
TTITLE11=Whiskey and Wimmen
TTITLE12=Tease Me Baby
TTITLE13=Boogie Chillun
TTITLE14=Cool Little Car
TTITLE15=Gonna Boogie
TTITLE16=Hug and Squeeze You
TTITLE17=Ride Till I Die
TTITLE18=Wednesday Evening Blues
TTITLE19=Rock House Boogie
TTITLE20=No Shoes
TTITLE21=Roll Your Daddy Right
TTITLE22=Half a Stranger
TTITLE23=My First Wife Left Me
TTITLE24=I Love You Honey
EXTD=
EXTT0=
EXTT1=
EXTT2=
EXTT3=
EXTT4=
EXTT5=
EXTT6=
EXTT7=
EXTT8=
EXTT9=
EXTT10=
EXTT11=
EXTT12=
EXTT13=
EXTT14=
EXTT15=
EXTT16=
EXTT17=
EXTT18=
EXTT19=
EXTT20=
EXTT21=
EXTT22=
EXTT23=
EXTT24=
PLAYORDER=
